<svg width="48" height="50" viewBox="0 0 48 50" fill="none" xmlns="http://www.w3.org/2000/svg">
<mask id="mask0_130_46" style="mask-type:luminance" maskUnits="userSpaceOnUse" x="0" y="0" width="48" height="50">
<path d="M0 0H47.9472V49.7575H0V0Z" fill="white"/>
</mask>
<g mask="url(#mask0_130_46)">
<path d="M4.19744 22.5359C3.94596 25.3177 4.98515 26.7253 0.957809 31.8999C-1.02073 35.1114 1.96372 35.1299 3.36164 35.1707C1.91934 36.4153 3.25809 37.5043 4.0717 37.7413C2.47038 38.397 2.94005 39.8638 4.36386 40.3491C2.01919 45.8682 6.16858 46.0682 12.0117 44.8755L12.8993 48.5426C13.0768 49.2649 13.7055 49.7575 14.4489 49.7575H31.0242C31.5715 49.7575 32.0412 49.5094 32.3445 49.0537C32.6514 48.5944 32.7069 48.061 32.4961 47.5573C27.9214 36.4782 34.7113 34.8521 37.1706 27.8921C38.4576 24.2509 38.1063 20.469 36.468 16.9908C29.9776 3.18555 5.56207 7.40455 4.19744 22.5359ZM21.0982 35.43C14.9185 35.43 9.88158 30.3812 9.88158 24.1917C9.88158 18.0058 14.9185 12.957 21.0982 12.957C27.2742 12.957 32.3149 18.0058 32.3149 24.1917C32.3149 30.3812 27.2742 35.43 21.0982 35.43ZM21.0982 16.187C16.6937 16.187 13.1064 19.7837 13.1064 24.1954C13.1064 28.6033 16.6937 32.2 21.0982 32.2C25.4991 32.2 29.0901 28.6033 29.0901 24.1954C29.0901 19.7837 25.4991 16.187 21.0982 16.187ZM21.886 24.1954C21.886 24.6324 21.5346 24.9843 21.0982 24.9843H17.1227C16.69 24.9843 16.3349 24.6324 16.3349 24.1954C16.3349 23.7546 16.69 23.4027 17.1227 23.4027H20.3105V20.2134C20.3105 19.78 20.6618 19.4244 21.0982 19.4244C21.5346 19.4244 21.886 19.78 21.886 20.2134V24.1954ZM47.0596 33.7779L42.1077 35.7596C41.7046 35.9189 41.2461 35.7189 41.087 35.3151L41.0796 35.304L39.1566 30.2331C39.0049 29.8256 39.2083 29.37 39.6151 29.2144C40.0219 29.0626 40.4731 29.27 40.6285 29.6775L41.8969 33.0186C42.4184 31.7851 42.8326 30.5035 43.1284 29.1737C43.4872 27.5809 43.6758 25.9104 43.6758 24.1954C43.6758 17.9465 41.1499 12.294 37.0634 8.20094C32.9769 4.11158 27.3334 1.57796 21.0982 1.57796C17.4185 1.57796 13.9459 2.45584 10.8801 4.01898C7.69594 5.64139 4.94447 7.99351 2.85499 10.8642C2.59611 11.2124 2.10425 11.2902 1.75292 11.0346C1.40529 10.7753 1.32763 10.2827 1.58281 9.93076C3.82022 6.86745 6.76399 4.34494 10.17 2.61141C13.4577 0.940848 17.1707 0 21.0982 0C27.7698 0 33.809 2.70772 38.1802 7.08599C42.5515 11.4643 45.2549 17.5131 45.2549 24.1954C45.2549 26.0178 45.0515 27.7995 44.6632 29.5219C44.3488 30.9183 43.9162 32.2666 43.3762 33.5557L46.479 32.3148C46.8821 32.1555 47.337 32.3555 47.496 32.7593C47.6587 33.1593 47.4627 33.6187 47.0596 33.7779Z" fill="#EFAE4B"/>
</g>
</svg>
