<svg width="50" height="51" viewBox="0 0 50 51" fill="none" xmlns="http://www.w3.org/2000/svg">
<mask id="mask0_222_89" style="mask-type:luminance" maskUnits="userSpaceOnUse" x="-2" y="0" width="52" height="53">
<path d="M-2 0H49.8052V52.3006H-2V0Z" fill="white"/>
</mask>
<g mask="url(#mask0_222_89)">
<path d="M39.5373 3.48897C35.7924 1.42348 31.2098 0.179172 26.1653 0.107454C17.9488 -0.00371011 12.4246 1.98647 9.04846 5.2389C5.91222 8.25824 4.75224 12.2422 4.69854 16.0648V25.6714C4.69854 25.8041 4.652 25.9332 4.56607 26.0444L-1.19444 33.2055C-1.8532 34.0266 -1.9785 34.8406 -0.908027 35.2996C0.438121 35.8662 1.47637 36.2069 2.28192 36.4651C3.63522 36.9061 4.39422 37.1535 4.89545 37.9209C5.48618 38.8282 5.47902 40.2482 5.46828 43.4863C5.46828 43.6512 5.4647 43.8413 5.4647 45.1107C5.4647 47.1116 7.26195 48.6249 9.28475 48.6249V48.6285L14.5047 48.6357C15.5966 48.6357 16.5776 49.1628 17.1182 50.1059L17.8664 51.4147C18.1994 51.9957 18.783 52.2897 19.4561 52.2897H40.2497V45.8028H40.2533C40.2533 45.7777 40.2533 45.7526 40.2569 45.7275C40.6579 42.5504 41.4455 39.4055 42.6127 36.2929C43.7798 33.1804 45.33 30.1072 47.2597 27.0664C48.7742 24.3088 49.4938 21.5584 49.5296 18.9335C49.6191 12.2494 45.3658 6.70554 39.5373 3.48897ZM25.4385 11.4533C24.5506 11.3099 23.7702 10.8401 23.2188 10.1695L15.969 14.3615C16.3306 15.3189 16.2697 16.3911 15.8078 17.2983L23.1401 21.2213C23.695 20.4934 24.5113 19.9914 25.4385 19.8372V11.4533ZM36.555 17.7896C35.8354 16.8071 35.6528 15.5161 36.0896 14.3615L28.8397 10.1695C28.2884 10.8437 27.5079 11.3099 26.62 11.4533V19.8407C27.5866 19.9985 28.4351 20.54 28.9901 21.3181L36.555 17.7896ZM36.5622 29.0673C37.1135 28.3071 37.9513 27.78 38.9 27.6258V19.2383C38.3773 19.1558 37.8904 18.9586 37.4679 18.6717L29.5128 22.3832C29.8064 23.3693 29.6703 24.4307 29.1512 25.2985L36.5622 29.0673ZM26.62 35.4108C27.5079 35.5542 28.2884 36.0204 28.8397 36.6946L36.0896 32.5026C35.8067 31.7424 35.7781 30.8997 36.0216 30.1216L28.36 26.2273C27.8731 26.6361 27.2752 26.9193 26.6236 27.0269V35.4108H26.62ZM15.3782 33.5246C14.0142 35.1885 11.5188 35.3176 9.99721 33.7935C7.89564 31.6886 9.0771 28.0991 11.9735 27.6258V19.2383C9.0771 18.765 7.89564 15.1755 9.99721 13.0705C11.5188 11.5465 14.0142 11.6756 15.3782 13.3395L22.6281 9.14755C21.733 6.78084 23.4802 4.21691 26.0293 4.21691C28.5784 4.21691 30.3255 6.78084 29.4304 9.14755L36.6803 13.3395C38.0444 11.6756 40.5397 11.5465 42.0613 13.0705C44.1629 15.1755 42.9814 18.765 40.0815 19.2383V27.6258C42.9778 28.0991 44.1629 31.6886 42.0613 33.7935C40.5397 35.3176 38.0444 35.1885 36.6803 33.5246L29.4304 37.7165C30.3219 40.0832 28.5784 42.6472 26.0293 42.6472C23.4802 42.6472 21.733 40.0832 22.6281 37.7165L15.3782 33.5246ZM16.0871 30.2937C16.2768 31.0216 16.2339 31.8034 15.969 32.5026L23.2188 36.6946C23.7702 36.0204 24.5506 35.5542 25.4385 35.4108V27.0269C24.9337 26.9409 24.4611 26.7508 24.0458 26.4855L16.0871 30.2937ZM13.1585 27.6258C14.1681 27.7907 15.0488 28.3752 15.6038 29.2107L23.1222 25.6177C22.4061 24.6674 22.1985 23.4087 22.5887 22.2612L15.1025 18.2594C14.5798 18.765 13.9103 19.12 13.1621 19.2419V27.6258H13.1585Z" fill="#EFAE4B"/>
</g>
<path fill-rule="evenodd" clip-rule="evenodd" d="M27.848 37.1822C28.8504 38.1863 28.8504 39.8179 27.848 40.8219C26.2369 42.4356 23.4587 41.2881 23.4587 39.0003C23.4587 36.7197 26.2369 35.5686 27.848 37.1822ZM14.3829 29.3972C15.3889 30.4013 15.3889 32.0329 14.3829 33.0369C12.7718 34.6542 9.99719 33.4995 9.99719 31.2189C9.99719 28.931 12.7754 27.7835 14.3829 29.3972ZM14.3829 17.4669C12.7718 19.0805 9.99719 17.933 9.99719 15.6452C9.99719 13.3646 12.7718 12.2099 14.3829 13.8272C15.3889 14.8312 15.3889 16.4628 14.3829 17.4669ZM23.4587 7.86378C23.4587 5.57597 26.2369 4.42848 27.848 6.04214C28.8504 7.0462 28.8504 8.67779 27.848 9.68184C26.2369 11.2955 23.4587 10.148 23.4587 7.86378ZM27.848 25.2519C26.2369 26.8691 23.4587 25.7145 23.4587 23.4302C23.4587 21.1496 26.2369 19.9949 27.848 21.6122C28.8504 22.6198 28.8504 24.2442 27.848 25.2519ZM41.3095 29.3972C42.3155 30.4013 42.3155 32.0329 41.3095 33.0369C39.6984 34.6542 36.9237 33.4995 36.9237 31.2189C36.9237 28.931 39.6984 27.7835 41.3095 29.3972ZM41.3095 17.4669C39.6984 19.0805 36.9237 17.933 36.9237 15.6452C36.9237 13.3646 39.6984 12.2099 41.3095 13.8272C42.3119 14.8312 42.3119 16.4628 41.3095 17.4669Z" fill="#855028"/>
</svg>
