<svg width="54" height="54" viewBox="0 0 54 54" fill="none" xmlns="http://www.w3.org/2000/svg">
<mask id="mask0_130_51" style="mask-type:luminance" maskUnits="userSpaceOnUse" x="0" y="0" width="54" height="54">
<path d="M0 0H53.6017V53.6875H0V0Z" fill="white"/>
</mask>
<g mask="url(#mask0_130_51)">
<path fill-rule="evenodd" clip-rule="evenodd" d="M49.0038 32.5161C44.0157 32.5161 41.5127 38.5703 45.0399 42.1031C45.6916 42.7558 45.6916 43.8103 45.0399 44.4594L41.459 48.0496C40.8073 48.6988 39.7545 48.6988 39.1028 48.0496C35.5757 44.5168 29.5312 47.0238 29.5312 52.02C29.5312 52.9417 28.7864 53.6877 27.8697 53.6877H22.8028C21.8825 53.6877 21.1377 52.9417 21.1377 52.02C21.1377 47.0167 15.0968 44.5132 11.5661 48.0496C10.918 48.6988 9.86164 48.6988 9.21351 48.0496L5.62909 44.4594C4.98095 43.8103 4.98095 42.7558 5.62909 42.1031C9.15622 38.5703 6.65321 32.5161 1.66509 32.5161C0.744816 32.5161 0 31.7701 0 30.8484V25.777C0 24.8552 0.744816 24.1092 1.66509 24.1092C6.65321 24.1092 9.15622 18.0551 5.62909 14.5223C4.98095 13.8695 4.98095 12.8151 5.62909 12.1659L9.21351 8.57573C9.86164 7.92656 10.918 7.92656 11.5661 8.57573C15.0933 12.1085 21.1377 9.60149 21.1377 4.60539C21.1377 3.68364 21.8825 2.93763 22.8028 2.93763H27.8697C28.7864 2.93763 29.5312 3.68364 29.5312 4.60539C29.5312 5.40878 29.6888 6.14762 29.9681 6.80755L13.8185 11.1401C12.8946 11.3876 12.3754 12.3632 12.6833 13.267C13.3064 15.0925 14.0978 15.9282 15.036 16.251C15.5982 16.4447 16.1603 16.4375 16.744 16.3407L15.9741 20.5226C14.2195 22.6351 13.1632 25.3502 13.1632 28.3127C13.1632 34.808 18.2301 40.1125 24.6219 40.4819C24.5861 40.6541 24.5682 40.8298 24.5682 41.0092V42.7379C24.5682 43.1719 24.9155 43.5198 25.3452 43.5198H35.1102C35.5399 43.5198 35.8872 43.1719 35.8872 42.7379V41.0092C35.8872 39.865 35.1066 38.8644 34.0037 38.5775C33.8855 38.1004 33.7817 37.6342 33.6922 37.1751C36.0412 34.955 37.5058 31.806 37.5058 28.3127C37.5058 27.7711 37.47 27.2403 37.4055 26.7202L40.9756 24.8409C42.3865 24.102 43.3067 22.8718 43.6183 21.3117L43.7794 20.5154C44.56 22.5311 46.4579 24.1092 49.0038 24.1092C49.9241 24.1092 50.6689 24.8552 50.6689 25.777V30.8484C50.6689 31.7701 49.9241 32.5161 49.0038 32.5161ZM34.6089 17.266L31.8444 18.0084C33.0727 18.7867 34.1505 19.7802 35.0278 20.9351L35.2319 20.8131C35.7118 20.5334 35.9588 20.0564 35.9194 19.5004L35.8156 18.1232C35.7726 17.5099 35.2069 17.1082 34.6089 17.266ZM45.7632 0.907627C44.8608 1.14793 44.3237 2.08402 44.5636 2.98784L47.6181 14.4039C47.8616 15.3077 48.7926 15.8457 49.695 15.6054L52.1586 14.9455C53.0609 14.7016 53.5981 13.7691 53.3546 12.8653L50.3001 1.4492C50.0602 0.545383 49.1256 0.00381023 48.2268 0.247697L45.7632 0.907627ZM24.5574 14.8451C24.7723 14.4757 25.245 14.3465 25.6174 14.5617C25.9862 14.7733 26.1151 15.2504 25.9038 15.6198L23.5047 19.7766C23.1287 20.433 23.0427 21.1036 23.2397 21.8317L25.3488 29.7258C25.5028 30.2925 26.1008 30.5901 26.6451 30.3642C28.1025 29.7581 28.3567 29.0156 27.9521 27.5057L26.6701 22.7176C26.4911 22.0469 26.5842 21.3834 26.9351 20.788L28.3782 18.3348C28.8401 17.5493 29.5384 17.0149 30.4157 16.7782L34.2078 15.7632C35.7368 15.3508 37.2515 16.4339 37.3661 18.012L37.47 19.3928C37.5523 20.537 37.0044 21.5771 36.0161 22.1545L33.6564 23.5389C32.6573 24.1164 31.4613 24.9592 31.8158 26.2863C31.9626 26.8242 32.1238 27.2475 32.3386 27.416C32.5391 27.5738 32.933 27.2977 33.1228 27.2116L40.2594 23.4636C41.2477 22.9436 41.878 22.1043 42.1 21.0068L43.3425 14.8092C43.5431 13.8085 44.2879 13.0841 45.269 12.8438L45.5698 12.7684L43.4392 4.80624L31.4828 8.01264C31.1784 8.09513 30.9313 8.22066 30.6807 8.41433L21.4564 15.6951C20.8441 16.1793 20.5075 16.8033 20.443 17.5816L19.7376 25.7949C19.6839 26.4118 20.1888 26.9067 20.8047 26.8314C21.5495 26.7453 22.3588 26.4297 22.6596 25.6873L21.7357 22.2334C21.4349 21.1108 21.5817 20.0097 22.1618 19.0055L24.5574 14.8451ZM26.1258 41.9596H34.3296V41.0092C34.3296 40.4891 33.9034 40.0587 33.3842 40.0587H27.0712C26.552 40.0587 26.1258 40.4891 26.1258 41.0092V41.9596ZM30.2366 26.34C29.9108 26.34 29.6028 26.3903 29.2985 26.5122L29.456 27.104C29.8249 28.4884 29.8105 29.88 28.7112 30.9094C29.1409 31.2321 29.6852 31.4115 30.2295 31.4115C31.5759 31.4115 32.6895 30.3534 32.7576 29.0049C31.2106 29.2452 30.4551 27.6169 30.2366 26.34ZM31.6332 32.7242C30.7308 33.0541 29.7246 33.0541 28.8222 32.7206C28.7434 34.6896 28.5178 36.5797 28.0702 38.4986H32.3852C31.9375 36.5797 31.712 34.6932 31.6332 32.7242ZM27.2323 9.15317L14.2195 12.6465C14.1622 12.6608 14.1372 12.7111 14.1587 12.7649C14.5955 14.0524 15.0503 14.6084 15.5409 14.7769C15.967 14.924 16.5363 14.8128 17.1845 14.6478C17.3349 14.2712 17.5211 13.9161 17.7395 13.5934C17.9794 13.2347 18.4628 13.1414 18.8173 13.3782C19.1754 13.6185 19.2685 14.0991 19.0322 14.4577C18.6813 14.9814 18.4664 15.5624 18.3518 16.1793L17.0914 23.0332C17.0806 23.087 17.1164 23.1372 17.1701 23.1444C17.5426 23.1767 17.9257 23.191 18.1871 23.0978C18.3053 23.0547 18.3984 22.9615 18.4342 22.7858L18.889 17.4561C18.9928 16.2474 19.5442 15.2217 20.4968 14.4721L27.2323 9.15317Z" fill="#EFAE4B"/>
</g>
</svg>
