<svg width="56" height="36" viewBox="0 0 56 36" fill="none" xmlns="http://www.w3.org/2000/svg">
<mask id="mask0_222_87" style="mask-type:luminance" maskUnits="userSpaceOnUse" x="-1" y="0" width="57" height="36">
<path d="M-0.514587 0.382812H55.6329V36.0001H-0.514587V0.382812Z" fill="white"/>
</mask>
<g mask="url(#mask0_222_87)">
<path d="M27.4096 9.91308C26.1873 9.91308 25.2316 9.23584 25.2316 8.36649C25.2316 8.13857 25.4169 7.95298 25.6444 7.95298C25.8752 7.95298 26.0605 8.13857 26.0605 8.36649C26.0605 8.70511 26.6359 9.08281 27.4096 9.08281C27.6372 9.08281 27.8225 9.2684 27.8225 9.49957C27.8225 9.72749 27.6372 9.91308 27.4096 9.91308ZM55.0933 7.83576L27.933 0.460952C27.6437 0.382808 27.1756 0.382808 26.8862 0.460952L-0.277302 7.83576C-0.436591 7.87809 -0.508108 7.94647 -0.498356 8.02135C-0.501606 8.03112 -0.501606 8.04089 -0.498356 8.05066C-0.501606 8.06043 -0.501606 8.07019 -0.498356 8.07996C-0.501606 8.08973 -0.501606 8.09624 -0.498356 8.10601C-0.501606 8.11578 -0.501606 8.12555 -0.498356 8.13531C-0.501606 8.14508 -0.501606 8.15485 -0.498356 8.16462C-0.501606 8.17439 -0.501606 8.18415 -0.498356 8.19392C-0.501606 8.20369 -0.501606 8.21346 -0.498356 8.22323C-0.501606 8.23299 -0.501606 8.24276 -0.498356 8.25253C-0.501606 8.2623 -0.501606 8.26881 -0.498356 8.28183C-0.501606 8.28835 -0.501606 8.29811 -0.498356 8.30788C-0.501606 8.31765 -0.501606 8.32742 -0.498356 8.33719C-0.501606 8.34695 -0.501606 8.35672 -0.498356 8.36649C-0.501606 8.37626 -0.501606 8.38602 -0.498356 8.39579C-0.501606 8.40556 -0.501606 8.41533 -0.498356 8.4251C-0.501606 8.43486 -0.501606 8.44138 -0.498356 8.45115C-0.501606 8.46091 -0.501606 8.47068 -0.498356 8.48045C-0.501606 8.49022 -0.501606 8.49998 -0.498356 8.50975C-0.501606 8.51952 -0.501606 8.52929 -0.498356 8.53906C-0.501606 8.54882 -0.501606 8.55859 -0.498356 8.56836C-0.501606 8.57813 -0.501606 8.5879 -0.498356 8.59766C-0.501606 8.60418 -0.501606 8.61395 -0.498356 8.62371C-0.501606 8.63348 -0.501606 8.64325 -0.498356 8.65302C-0.511359 8.72465 -0.449594 8.79954 -0.309811 8.86466L9.98867 13.6444L24.8935 9.91308L12.1114 14.6278V27.8959C11.5783 28.1075 11.198 28.6252 11.198 29.2374C11.198 29.576 11.3182 29.8853 11.5165 30.1328C10.1707 30.9728 9.20198 33.278 9.20198 35.9968H16.0741C16.0741 33.278 15.1054 30.9728 13.7596 30.1328C13.9579 29.8853 14.0782 29.576 14.0782 29.2374C14.0782 28.6252 13.6978 28.1075 13.1647 27.8959V15.1162L26.9187 21.4979C27.1918 21.6249 27.6307 21.6249 27.9005 21.4979L55.1258 8.86466C55.2688 8.79954 55.3306 8.72465 55.3176 8.65302C55.3176 8.64325 55.3176 8.63348 55.3176 8.62371C55.3176 8.61395 55.3176 8.60418 55.3176 8.59766C55.3176 8.5879 55.3176 8.57813 55.3176 8.56836C55.3176 8.55859 55.3176 8.54882 55.3176 8.53906C55.3176 8.52929 55.3176 8.51952 55.3176 8.50975C55.3176 8.49998 55.3176 8.49022 55.3176 8.48045C55.3176 8.47068 55.3176 8.46091 55.3176 8.45115C55.3176 8.44138 55.3176 8.43486 55.3176 8.42184C55.3176 8.41533 55.3176 8.40556 55.3176 8.39579C55.3176 8.38602 55.3176 8.37626 55.3176 8.36649C55.3176 8.35672 55.3176 8.34695 55.3176 8.33719C55.3176 8.32742 55.3176 8.31765 55.3176 8.30788C55.3176 8.29811 55.3176 8.28835 55.3176 8.28183C55.3176 8.26881 55.3176 8.2623 55.3176 8.25253C55.3176 8.24276 55.3176 8.23299 55.3176 8.22323C55.3176 8.21346 55.3176 8.20369 55.3176 8.19392C55.3176 8.18415 55.3176 8.17439 55.3176 8.16462C55.3176 8.15485 55.3176 8.14508 55.3176 8.13531C55.3176 8.12555 55.3176 8.11578 55.3176 8.10927C55.3176 8.09624 55.3176 8.08973 55.3176 8.07996C55.3176 8.07019 55.3176 8.06043 55.3176 8.05066C55.3176 8.04089 55.3176 8.03112 55.3176 8.02135C55.3241 7.94647 55.2526 7.87809 55.0933 7.83576Z" fill="#EFAE4B"/>
</g>
<path d="M26.9188 22.6373L14.153 16.7147V26.4924C16.8837 28.1367 21.7956 29.2372 27.4097 29.2372C35.9885 29.2372 42.9452 26.6715 42.9452 23.5034V15.6565L27.9006 22.6373C27.6308 22.7643 27.1919 22.7643 26.9188 22.6373Z" fill="#EFAE4B"/>
</svg>
