<svg width="64" height="64" viewBox="0 0 64 64" fill="none" xmlns="http://www.w3.org/2000/svg">
<rect width="64" height="64" rx="10" fill="white"/>
<path d="M45.2 10C43.22 10 40.8 12.2 40.8 14.4H23.2C23.2 12.2 20.78 10 18.8 10H10V29.8C10 32 12.2 34.2 14.4 34.2H19.24C20.12 38.6 22.98 42.34 29.8 43V47.576C23.2 48.588 23.2 54 23.2 54H40.8C40.8 54 40.8 48.588 34.2 47.576V43C41.02 42.34 43.88 38.6 44.76 34.2H49.6C51.8 34.2 54 32 54 29.8V10H45.2ZM18.8 29.8H14.4V14.4H18.8V29.8ZM49.6 29.8H45.2V14.4H49.6V29.8Z" fill="#EF3E22"/>
</svg>
