<svg width="64" height="64" viewBox="0 0 64 64" fill="none" xmlns="http://www.w3.org/2000/svg">
<rect width="64" height="64" rx="10" fill="white"/>
<path d="M46.4533 47.8406C48.5197 47.7894 50.4842 46.9323 51.9273 45.4525C53.3705 43.9726 54.1779 41.9872 54.1773 39.9202V31.9997C54.1773 31.1595 53.8435 30.3536 53.2493 29.7595C52.6552 29.1653 51.8494 28.8315 51.0091 28.8315H41.5045C40.6643 28.8315 39.8585 29.1653 39.2643 29.7595C38.6702 30.3536 38.3364 31.1595 38.3364 31.9997V39.9202C38.336 40.977 38.5472 42.0233 38.9575 42.9973C39.3678 43.9713 39.9688 44.8533 40.7252 45.5914C41.4816 46.3295 42.3781 46.9088 43.3619 47.2951C44.3456 47.6813 45.3967 47.8669 46.4533 47.8406Z" fill="#EF3E22"/>
<path d="M46.4533 47.8406C48.5197 47.7894 50.4842 46.9323 51.9273 45.4525C53.3705 43.9726 54.1779 41.9872 54.1773 39.9202V31.9997C54.1773 31.1595 53.8435 30.3536 53.2493 29.7595C52.6552 29.1653 51.8494 28.8315 51.0091 28.8315H41.5045C40.6643 28.8315 39.8585 29.1653 39.2643 29.7595C38.6702 30.3536 38.3364 31.1595 38.3364 31.9997V39.9202C38.336 40.977 38.5472 42.0233 38.9575 42.9973C39.3678 43.9713 39.9688 44.8533 40.7252 45.5914C41.4816 46.3295 42.3781 46.9088 43.3619 47.2951C44.3456 47.6813 45.3967 47.8669 46.4533 47.8406Z" fill="#EF3E22"/>
<path d="M17.9396 47.8406C20.006 47.7894 21.9705 46.9323 23.4137 45.4525C24.8568 43.9726 25.6643 41.9872 25.6636 39.9202V31.9997C25.6636 31.1595 25.3298 30.3536 24.7357 29.7595C24.1415 29.1653 23.3357 28.8315 22.4955 28.8315H12.9909C12.1507 28.8315 11.3448 29.1653 10.7507 29.7595C10.1565 30.3536 9.82272 31.1595 9.82272 31.9997V39.9202C9.8224 40.977 10.0336 42.0233 10.4439 42.9973C10.8541 43.9713 11.4552 44.8533 12.2116 45.5914C12.968 46.3295 13.8645 46.9088 14.8482 47.2951C15.832 47.6813 16.8831 47.8669 17.9396 47.8406Z" fill="#EF3E22"/>
<path d="M17.9396 47.8406C20.006 47.7894 21.9705 46.9323 23.4137 45.4525C24.8568 43.9726 25.6643 41.9872 25.6636 39.9202V31.9997C25.6636 31.1595 25.3298 30.3536 24.7357 29.7595C24.1415 29.1653 23.3357 28.8315 22.4955 28.8315H12.9909C12.1507 28.8315 11.3448 29.1653 10.7507 29.7595C10.1565 30.3536 9.82272 31.1595 9.82272 31.9997V39.9202C9.8224 40.977 10.0336 42.0233 10.4439 42.9973C10.8541 43.9713 11.4552 44.8533 12.2116 45.5914C12.968 46.3295 13.8645 46.9088 14.8482 47.2951C15.832 47.6813 16.8831 47.8669 17.9396 47.8406Z" fill="#EF3E22"/>
<path d="M22.4955 31.9775C22.5013 31.1411 22.8377 30.341 23.4312 29.7516C24.0247 29.1623 24.8272 28.8315 25.6636 28.8315H38.3364C39.1766 28.8315 39.9825 29.1653 40.5766 29.7595C41.1708 30.3536 41.5046 31.1595 41.5046 31.9997V41.5043C41.5054 42.5014 41.3493 43.4925 41.042 44.4412C40.3405 46.5914 38.8954 48.4212 36.9662 49.6018C35.037 50.7825 32.7501 51.2367 30.5161 50.883C28.2822 50.5292 26.2475 49.3906 24.7774 47.6717C23.3074 45.9528 22.4983 43.7661 22.4955 41.5043V31.9775Z" fill="#EF3E22"/>
<path d="M22.4955 31.9775C22.5013 31.1411 22.8377 30.341 23.4312 29.7516C24.0247 29.1623 24.8272 28.8315 25.6636 28.8315H38.3364C39.1766 28.8315 39.9825 29.1653 40.5766 29.7595C41.1708 30.3536 41.5046 31.1595 41.5046 31.9997V41.5043C41.5054 42.5014 41.3493 43.4925 41.042 44.4412C40.3405 46.5914 38.8954 48.4212 36.9662 49.6018C35.037 50.7825 32.7501 51.2367 30.5161 50.883C28.2822 50.5292 26.2475 49.3906 24.7774 47.6717C23.3074 45.9528 22.4983 43.7661 22.4955 41.5043V31.9775Z" fill="#B2252A"/>
<path d="M46.2568 16.1588C44.9964 16.1588 43.7877 16.6595 42.8965 17.5507C42.0052 18.4419 41.5045 19.6507 41.5045 20.9111C41.5045 22.1715 42.0052 23.3802 42.8965 24.2715C43.7877 25.1627 44.9964 25.6634 46.2568 25.6634C47.5172 25.6634 48.726 25.1627 49.6172 24.2715C50.5084 23.3802 51.0091 22.1715 51.0091 20.9111C51.0091 19.6507 50.5084 18.4419 49.6172 17.5507C48.726 16.6595 47.5172 16.1588 46.2568 16.1588Z" fill="#EF3E22"/>
<path d="M17.7432 16.1588C16.4828 16.1588 15.274 16.6595 14.3828 17.5507C13.4916 18.4419 12.9909 19.6507 12.9909 20.9111C12.9909 22.1715 13.4916 23.3802 14.3828 24.2715C15.274 25.1627 16.4828 25.6634 17.7432 25.6634C19.0036 25.6634 20.2123 25.1627 21.1035 24.2715C21.9948 23.3802 22.4955 22.1715 22.4955 20.9111C22.4955 19.6507 21.9948 18.4419 21.1035 17.5507C20.2123 16.6595 19.0036 16.1588 17.7432 16.1588Z" fill="#EF3E22"/>
<path d="M32 12.9969C31.1687 12.9969 30.3456 13.1607 29.5776 13.4788C28.8096 13.7969 28.1118 14.2632 27.524 14.851C26.9362 15.4388 26.4699 16.1366 26.1518 16.9046C25.8337 17.6726 25.67 18.4957 25.67 19.327C25.67 20.1582 25.8337 20.9814 26.1518 21.7494C26.4699 22.5174 26.9362 23.2152 27.524 23.803C28.1118 24.3908 28.8096 24.857 29.5776 25.1752C30.3456 25.4933 31.1687 25.657 32 25.657C33.6788 25.657 35.2889 24.9901 36.476 23.803C37.6631 22.6159 38.33 21.0058 38.33 19.327C38.33 17.6481 37.6631 16.0381 36.476 14.851C35.2889 13.6639 33.6788 12.9969 32 12.9969Z" fill="#B2252A"/>
</svg>
